# xmcd CD database file
#
# Track frame offsets:
#	150
#	24412
#	43035
#	64354
#	87038
#	105908
#	119954
#	135003
#	147137
#	169598
#	180011
#
# Disc length: 2733 seconds
#
# Revision: 2
# Processed by: cddbd v1.5.2PL0 Copyright (c) Steve Scherf et al.
# Submitted via: CDex 1.51
#
DISCID=830aab0b
DTITLE=Johnny Jenkins - Ton-Ton Macoute! (featuring Duane Allman)
DYEAR=1970
DGENRE=Blues
TTITLE0=I Walk On Guilded Splinters
TTITLE1=Leaving Trunk
TTITLE2=Blind Bats And Swamp Rats
TTITLE3=Rollin' Stone
TTITLE4=Sick And Tired
TTITLE5=Down Along The Cove
TTITLE6=Bad News
TTITLE7=Dimples
TTITLE8=Voodoo In You
TTITLE9=I Don't Want A Woman
TTITLE10=My Love Will Never Die
EXTD=YEAR: 1970
EXTT0=
EXTT1=
EXTT2=
EXTT3=
EXTT4=
EXTT5=
EXTT6=
EXTT7=
EXTT8=
EXTT9=
EXTT10=
PLAYORDER=
